<?xml version="1.0" encoding="utf-8"?>
<!-- Svg Vector Icons : http://www.onlinewebfonts.com/icon -->
<!DOCTYPE svg PUBLIC "-//W3C//DTD SVG 1.1//EN" "http://www.w3.org/Graphics/SVG/1.1/DTD/svg11.dtd">
<svg version="1.1" xmlns="http://www.w3.org/2000/svg" xmlns:xlink="http://www.w3.org/1999/xlink" x="0px" y="0px" viewBox="0 0 256 256" enable-background="new 0 0 256 256" xml:space="preserve">
<metadata> Svg Vector Icons : http://www.onlinewebfonts.com/icon </metadata>
<g><g><path stroke-width="4" fill-opacity="0" stroke="#000000"  d="M158.3,10c-0.1,2.4-1.1,3.8-1,6.5c-1.8-2-3.7-3.9-5.5-6C152.3,8.8,157,9.4,158.3,10L158.3,10z"/><path stroke-width="4" fill-opacity="0" stroke="#000000"  d="M10.2,15c0.5,0,1,0,1.5,0c0.2,1-0.3,1.3-0.5,2C10.3,16.8,10.1,16.1,10.2,15L10.2,15z"/><path stroke-width="4" fill-opacity="0" stroke="#000000"  d="M12.7,31.4c-0.9,1-0.6,3.1-2.5,3C9.9,32.2,11.3,31.8,12.7,31.4z"/><path stroke-width="4" fill-opacity="0" stroke="#000000"  d="M10.7,36.8c1-0.2,0.7,2.3-0.5,1.5c0-0.3,0-0.6,0-1C10.6,37.4,10.7,37.1,10.7,36.8L10.7,36.8z"/><path stroke-width="4" fill-opacity="0" stroke="#000000"  d="M10.7,79.6c0.9,0.1,1.1,0.9,1,2c-0.6-0.1-0.9,0.1-1,0.5C9.6,81.9,10.4,79.9,10.7,79.6z"/><path stroke-width="4" fill-opacity="0" stroke="#000000"  d="M190.1,89.5c-0.1,1.2-1.7,0.1-2,0C188.5,87.8,189.2,89,190.1,89.5L190.1,89.5z"/><path stroke-width="4" fill-opacity="0" stroke="#000000"  d="M13.2,94.5C12.5,95,12,95.9,10.7,96C10.6,94.5,12,94.5,13.2,94.5z"/><path stroke-width="4" fill-opacity="0" stroke="#000000"  d="M10.7,103.9c2.1,0.6,0,1.6,0,3C9.3,106.4,10.9,104.8,10.7,103.9z"/><path stroke-width="4" fill-opacity="0" stroke="#000000"  d="M238.3,108.4c0-0.3,0-0.7,0-1c0.3,0,0.7,0,1,0c0,0.3,0,0.7,0,1C238.9,108.4,238.6,108.4,238.3,108.4z"/><path stroke-width="4" fill-opacity="0" stroke="#000000"  d="M10.7,116.8c0.8-0.1,0.9,0.5,1.5,0.5c-0.1,0.4-0.5,0.5-0.5,1c-0.3,0-0.7,0-1,0C10.7,117.8,10.7,117.3,10.7,116.8L10.7,116.8z"/><path stroke-width="4" fill-opacity="0" stroke="#000000"  d="M10.2,125.3c0.7,0.3,0.9,1.1,1,2C9.7,127.7,10.3,126.1,10.2,125.3z"/><path stroke-width="4" fill-opacity="0" stroke="#000000"  d="M10.2,132.7c0.8,0.9,2-0.7,2,1.5c-0.8,0-1.9,0.2-2-0.5C10.2,133.4,10.2,133,10.2,132.7L10.2,132.7z"/><path stroke-width="4" fill-opacity="0" stroke="#000000"  d="M120,142.6c0.9-1.5,1.5,1.4,1.5,2.5C120.3,145,121,143,120,142.6z"/><path stroke-width="4" fill-opacity="0" stroke="#000000"  d="M129.5,150.1c0.6,0.7,1.4,1.2,1.5,2.5C129.4,152.8,129.4,151.5,129.5,150.1z"/><path stroke-width="4" fill-opacity="0" stroke="#000000"  d="M13.7,185.4c0.7,0.4,1.9,0.4,1.5,2c-0.5,0-1,0-1.5,0C13.7,186.7,13.7,186,13.7,185.4z"/><path stroke-width="4" fill-opacity="0" stroke="#000000"  d="M131.4,8.5c1.9,4.3,9.2,0.8,12.4,3l-0.7,0.6l0.2,0.9c-1.1-0.1-1.9,0.1-2,1c2.6,0.9,4.8,0.3,7-0.5c2.4,1.8,4.3,3.9,4.5,7.9c3-0.8,6.4-1.3,10.4-1c2-2.2,1.9-6.4,1.5-8.5c9.7-1.1,20.4-0.2,29.3,1l-0.2,0.9l0.7,0.6c-0.5,0.7-1.3,1-2,1.5l-0.6-0.7l-0.9,0.2c-0.8-0.5-1.9-0.7-2,0c0.5,0,0.4,0.6,0.5,1c0.3,0,0.7,0,1,0c0.5-1,1.1-0.2,1.1-0.2l0.9-0.2c0.4,2.5,2.3-0.6,2.5-1.5l0.7-0.6l-0.2-0.9c1.4-0.4,1.3,0.7,2.5,0.5l-0.2,0.9l0.7,0.6c-1.9,2.1,3.9,2.7,4.5,1c-1.3,0-2.4-0.3-3-1l0.7-0.6l-0.2-0.9c2.7,0.5,5.7,0.6,8.9,0.5c0.1-0.4,0.5-0.5,0.5-1l0.7,0.2l0.7-0.2c0.7,0.5,1.5,0.8,2,1.5c2.8,0.5,2.9-1.7,5-2c2.6,2.5,8.9,4.4,11.9,1c0.3,2.7,4.1,0.2,7,1c0.7,3.1,4.8,3.4,7,5c0.8,0.6,0.6,1.6,1.5,1.5c-1.2,3.7,0.3,9.9-2,12.4c3.9,18.5,1.6,37.3,1.5,58.1c-2.6-0.1-5,0-7,0.5c0,2.9,1.4,4.3,2,6.5c-6.5,2.7-3.4,12.2,1.5,14.4c-0.6,4.7,0.4,7.9,2.5,9.9c-1.5,2.6-2.4,6.6-1,9.4c-1.8,2.2-1.5,6.4-1.5,10.4c-1.6,0.7-3-2.6-3.5,0c-0.1,3.6,6,1.9,7.5,2.5c-0.3,31.8,0.7,64.9-0.5,95.9c-6.4-3-18-9.6-25.8-3.5c1.2,0.4,2.6,0.6,4.5,0.5l-0.2,0.7l0.7,0.2c-0.7,0.3-0.1,1.9-1,2c-1.5,0.4-1-1.4-2.5-1c-4.6,4.4-14.7,2.8-19.9,0c-4,1.5-9.7,1-11.9-2c-1.9,0.7-3.5,1.8-5,3c-4.8-0.5-7.8,0.9-11.4,1.5c-0.8-0.5-0.6-2.9-2-1.5l-0.6-0.7l-0.9,0.2c-1.1-1.2-4.1-0.1-4.5,1l-0.9-0.2l-0.6,0.7c-6.8,1.3-17-0.8-22.3,2l-0.7-0.2l-0.7-0.2c-1.4-0.7-2,0.2-4-0.5c0,0.8,0.4,1.3,1,1.5l-0.2,0.9l0.7,0.6c-2.8,1.9-4.6-1.3-6-2.5c-1.6,0-0.4,3-2.5,2.5c-2.1-3.1-8.5-3.7-13.4-2.5c-1.7,1.1,2.3,1.9,0.5,3c-2.5-0.5-2.8,1.1-5,1c-1.3-3.8-4.3-5.9-6-9.4l-0.5-0.2l-0.5,0.2c0-0.7,0.1-1.4-0.5-1.5c0.1,0.4-0.2,0.5-0.5,0.5c0,0.3,0,0.7,0,1l-0.2,0.5l0.2,0.5c-2,0.5-4.4,0.6-7,0.5c-1.6-0.1-1.5-1.8-3-2c-1.6-0.1-0.2,2.8-2.5,2c-2.4-0.4-2.1-3.6-4-4.5c-2.2-0.2-1.4,2.6-2.5,3.5c-0.5-1.1-1.7-1.6-1.5-3.5c-2.2,0.1-2.2,2.4-3.5,3.5c-0.5-1-1.9-1.1-3.5-1l-0.7-0.2l-0.2,0.7c-1-0.3-1-1.5-2-0.5c-1.4-0.2-0.5,1.9-1.5,2c-0.2-2.5-1.3,0.4-2.5,0c-0.3-1.5-0.1-3.5-2-3.5c-0.9,0.6-0.3,2.6-2.5,2c-1-0.1-0.1-2.2-1.5-2c-0.7,1.4-2.1,2.2-4.5,2c-0.7,0.6-0.6,2.1-2,2c-0.1-2.2,0.2-4.8-2-5c-2.6-0.8-0.3,3.3-2.5,3c-2.3,0.8,0.3-3.3-2-2.5c-2-0.1-0.1,3.5-1.5,4c-0.2-1.5-2.3-1-3-2l0.2-0.7l-0.7-0.2c0.1-0.4,0.5-0.5,0.5-1c-1.2-0.1-2.4-0.1-2.5,1l-0.7,0.2l0.2,0.7c-3.9,0.5-6.6-0.4-8.9-1.5c-0.7,1.4,1.3,2.5,0,3c-1.9-2.3-5.4-0.1-7.4,0.5c0.1-1.3,0.2-2.5-1.5-2l-0.7-0.2l-0.2,0.7c-0.5,0-0.4-0.6-0.5-1c-2.6-0.8-2.6,3.7-4,2.5c-0.9-0.7,0-3.3-1-4c-2-0.3-5.5,0.9-6-1c4.4-13.3-1.7-31,2.5-45.7c1.8-0.4,2.4,1.1,3.5,0c-0.4-9.5,1-17.2,1-26.3c-2,0-3.7-0.2-5-1c-0.9-8.5-2.1-21.1,0-29.3c1.5-0.4,1,1.4,2.5,1c0-0.3,0-0.7,0-1l0.7-0.6l-0.2-0.9c1.3-0.5,1.7,2.1,2.5,0.5c-0.9-2.7-0.1-6.8,0-9.4c-5.4-2.2-6.3-12.6-3-17.9c-1.8-5.5-2.6-11.9-3.5-18.4c-0.8,0.3-2.7,0.2-2.5-3c1.2-0.2,1.1,0.9,2.5,0.5c-1.4-3.6,0.4-10.1-0.5-13.9c0-0.1-0.9,0-1,0L11,68.5l-0.7-0.2c0-0.2,0-0.3,0-0.5l0.7-0.2l0.2-0.7c0.4,3.3,2.2,0.3,0-0.5L11,65.5l-0.7,0.2c-0.3-1.6,0.9-1.5,0-2.5c0.9-0.1,1.1,0.6,2,0.5C12.9,52,13.9,40.7,13.7,28c-0.2-1-1.9-0.4-1.5-2c0.2-4.4,1.1-8.2,1.5-12.4c4.2,4.1,13,2.1,16.4-1.5c0.3,1.2,0.4,2.6,2,2.5c2.9-0.1,5.8-0.2,7.5,1c0.7-0.6,0.6-2.1,2-2c0.9,0.3,0,2.4,1,2.5c1.1-2.1,4.7-2.7,5,0.5l0.5,1.5c-0.2,0-0.3,0-0.5,0c0,0.5,0,1,0,1.5c0.5,0,1,0,1.5,0c0-0.7,0.1-1.4-0.5-1.5l0.2-0.9L48,16.6c2.7-3.7,10.6,0.7,13.9-2c2.3,1.6,7.1,2.1,8.5-0.5c4.1,7.1,18.6,0.9,25.8,5c1.2-0.5,0.6-2.7,1.5-3.5c1.8,0.1,3.2-0.1,4.5-0.5c0.5-0.7,0.8-1.5,1.5-2l0.6,0.7l0.9-0.2c1.6,1.7,0.2-3.8,2-3.5c1.9,0.3,5.2,1.1,7,0c-0.1-0.8,0.5-0.9,0.5-1.5c0.2,0,0.3,0,0.5,0c0,0.2,0,0.3,0,0.5c2.7,0.7,5.4,1.5,8.5,2l-0.2,0.9l0.7,0.6c-1.7,1.6,2.3,2.3,3,1.5c0-0.8-0.4-1.3-1-1.5l0.2-0.7l-0.2-0.7c1.5-1,4-0.9,5-2.5C131.1,8.5,131.3,8.5,131.4,8.5L131.4,8.5z M110.6,14c0.5,0,1,0,1.5,0c0-0.8-0.4-1.3-1-1.5C111.1,13.2,110.8,13.6,110.6,14L110.6,14z M118.5,13.5c0.5,0,0.6,0.4,1,0.5c0-0.8,0.1-1.7-1-1.5C118.5,12.8,118.5,13.2,118.5,13.5L118.5,13.5z M136.4,14.5c1.2-1.2-1.6-1.3-1.5-0.5C134.9,14,136.6,14.3,136.4,14.5z M170.7,15c0.3,0,0.7,0,1,0c0-0.3,0-0.7,0-1c-0.3,0-0.7,0-1,0C170.7,14.3,170.7,14.6,170.7,15z M34.6,17.9c0-1.5-1.7-1.2-3-1.5C31.3,18.2,33.1,18,34.6,17.9z M212.9,17.9c0.5,0,1,0,1.5,0c0-0.5,0-1,0-1.5c-0.5,0-1,0-1.5,0C212.9,17,212.9,17.5,212.9,17.9z M25.6,18.5c0.5,0,1,0,1.5,0c0-0.5,0-1,0-1.5c-0.5,0-1,0-1.5,0C25.6,17.5,25.6,17.9,25.6,18.5z M56.9,19.4c0.5,0,1,0,1.5,0c0-0.5,0-1,0-1.5c-0.5,0-1,0-1.5,0C56.9,18.5,56.9,18.9,56.9,19.4z M102.6,20.9c0.1-0.6,0.9-1.1,0-1.5C102.6,20,101.7,20.6,102.6,20.9z M80.8,68.6c-1.4-0.4-0.6-0.7-0.5-2c-3-2.4-7.2-5.1-11.4-7.9c-5.9-3.9-9.8-8.7-18.4-7.4c-5.1,0.8-8.2,3.5-13.9,4.5c4,6,9.4,10.9,14.4,15.9c14.6,14.6,28.7,30.8,43.2,46.2c1.5,0.5,2.5,0.7,3,1l-0.2,0.7l0.7-0.2c-0.3,2.8,2.4,3.8,4.5,6c1.6,1.7,2.7,4.1,4,5.5c1.1,1.1,4.8,2.2,4.5,5c3.3,0.9,4.6,4.6,7,7c1.4,1.4,3.7,2.2,5,3.5c0.4,0.4,0.3,1.7,0.5,2c0.6,0.7,1.4,0.7,2,1.5c1.8,2.3,4.2,4.5,6.5,7c1.6,0.8,1.4-2.5,2-1c1.5,0.7,0.2,1.4,0.5,3.5c1.6,1.4,2.6,3.4,4.5,4.5c-0.1-0.6,0.1-0.9,0.5-1c0.8,1.8,1.8,3.5,3.5,4.5c-0.1-1.4,0.1-1.7,1-1c1,1.9-0.7,0.8-0.5,3c6.5,7.7,15.4,15.2,22.3,23.4c2.4,2.8,5.5,8.4,8.9,10.4c6.5,3.9,21.5,2.7,30.3,2.5c-0.1-1.1,0.8-0.6,1.5-1.5c3-4.1,5.4-12.8,7.9-20.9c2.5-7.7,5.6-13.7,5-20.9c0-0.6-0.7-2.6-1-3c-0.2-0.2-4.2-2.6-5.5-3.5c-6.3-4.3-12.9-8.6-19.9-12.4l0.2-0.7l-0.7,0.2c-0.1-0.2,0.1-0.9,0-1c-31.9-22.2-65-42.8-96.9-65.1c-1,0-2,0-3,0c-1.3-3.8-4.9-3.9-7-4c2.4-1.8-2.4-3.1-4-4L81,67.9L80.8,68.6L80.8,68.6z M190.6,92.5c0.2,0.6,0.9,0.8,1,1.5c2.6-0.8,2.3,1.3,5,2.5c1.1-11.1,5.2-24.1,5-33.3c0.1,1-1.4-0.1-1.5-0.5c1,0.2,1.6-0.1,1.5-1c-4.6-4-9.1-9.2-15.9-9.4c-5.2-0.2-11.8,3-17.9,4.5c-4.7,1.2-9.2,2.3-13.4,3.5c-1.4,0.4-3.6-0.3-4,1.5C163.6,72,177,82.8,190.1,92l-0.2,0.7L190.6,92.5L190.6,92.5z M62.9,208.2c12.6,1,25.8-7.1,39.2-9.9c-0.5-1-1.3-2.7-2-3.5c0.2,0.3-0.3,0.6-0.5,0.5c-3.7-2.9-7-7.6-10.9-11.4c-10.7-10.3-22.8-21.7-33.8-31.8c-3.8,9-7.7,18.7-11.9,28.8c-1.3,3.1-3.9,7.2-3.5,9.9c0.6,3.3,12.3,10.1,15.9,13.4c2,1.9,4,3.3,7,4l0.2,0.7L62.9,208.2L62.9,208.2z"/><path stroke-width="4" fill-opacity="0" stroke="#000000"  d="M169.8,241.8l0.9-0.2c0.3,1.8-0.8,2.2-2.5,2c-0.1-1.2,0.3-2.1,1-2.5L169.8,241.8L169.8,241.8z"/><path stroke-width="4" fill-opacity="0" stroke="#000000"  d="M164.1,242.7l0.6-0.7c1.2,0.7,2.1-1.5,2.5,0c0,2.3-1.6,3-3.5,3.5l0.2-0.9l-0.7-0.6c0-0.5,0-1,0-1.5L164.1,242.7L164.1,242.7z"/><path stroke-width="4" fill-opacity="0" stroke="#000000"  d="M63.1,207l-0.2,0.2c0-0.9,1.9,0.3,2,1c-0.7-0.3-1.3-0.7-2-1L63.1,207z"/><path stroke-width="4" fill-opacity="0" stroke="#000000"  d="M10.7,61.7c-0.6-0.1-0.3-0.5,0-0.5c0.1-0.4-0.2-0.5-0.5-0.5c0.5-1.6,1,0.6,1.5,0.5C11.5,62,10.8,60.7,10.7,61.7L10.7,61.7z"/><path stroke-width="4" fill-opacity="0" stroke="#000000"  d="M11,26.2c0.1-2.3-0.2-4.6-0.2-7L11,26.2z"/><path stroke-width="4" fill-opacity="0" stroke="#000000"  d="M11,26.9C10.9,26.9,10.9,26.9,11,26.9c-0.4,0-0.7-0.4-0.7-0.7c0.1-1.5,0-3-0.1-4.4c0-0.8-0.1-1.6-0.1-2.5c0-0.4,0.3-0.7,0.7-0.7c0.4,0,0.7,0.3,0.7,0.7c0,0.8,0.1,1.6,0.1,2.4c0.1,1.5,0.2,3,0.1,4.6C11.6,26.6,11.3,26.9,11,26.9L11,26.9z"/><path stroke-width="4" fill-opacity="0" stroke="#000000"  d="M10.7,77.3c0.1-0.1,0.2-0.2,0.4-0.3c0.4-1-0.2-2.1-0.1-3.2L10.7,77.3z"/><path stroke-width="4" fill-opacity="0" stroke="#000000"  d="M10.7,77.9c-0.1,0-0.3,0-0.4-0.2c-0.3-0.2-0.3-0.6,0-0.9c0.1-0.1,0.2-0.2,0.3-0.3c0.1-0.4,0-0.9-0.1-1.4c-0.1-0.5-0.2-0.9-0.1-1.4c0-0.3,0.3-0.6,0.7-0.6c0.3,0,0.6,0.3,0.6,0.7c0,0.4,0,0.7,0.1,1.1c0.1,0.7,0.3,1.4,0,2.2l0,0.1l-0.1,0.1c-0.1,0.1-0.2,0.2-0.3,0.3C11.1,77.9,10.9,77.9,10.7,77.9L10.7,77.9z"/><path stroke-width="4" fill-opacity="0" stroke="#000000"  d="M11.7,89.7c0-0.6-0.2-0.6-0.5-0.7L11.7,89.7z"/><path stroke-width="4" fill-opacity="0" stroke="#000000"  d="M11.7,90.3c-0.3,0-0.5-0.2-0.5-0.5c0-0.1,0-0.2,0-0.2c0,0-0.1,0-0.1,0l0.4-1c0.3,0.1,0.8,0.3,0.8,1.2C12.3,90,12,90.3,11.7,90.3C11.7,90.3,11.7,90.3,11.7,90.3L11.7,90.3z"/><path stroke-width="4" fill-opacity="0" stroke="#000000"  d="M11.2,100.2c-0.1-0.5-0.2-1-0.2-1.5L11.2,100.2z"/><path stroke-width="4" fill-opacity="0" stroke="#000000"  d="M11.2,100.8c-0.3,0-0.6-0.2-0.7-0.6l-0.1-0.4c-0.1-0.4-0.1-0.8-0.2-1.2c0-0.4,0.2-0.7,0.6-0.7c0.4,0,0.7,0.2,0.7,0.6c0,0.4,0.1,0.7,0.2,1.1l0.1,0.4C12,100.4,11.7,100.8,11.2,100.8C11.3,100.8,11.3,100.8,11.2,100.8L11.2,100.8z"/><path stroke-width="4" fill-opacity="0" stroke="#000000"  d="M120.8,245.2c0.5,0,1,0,1.5,0H120.8z"/><path stroke-width="4" fill-opacity="0" stroke="#000000"  d="M122.3,246h-1.5c-0.4,0-0.8-0.3-0.8-0.8s0.3-0.8,0.8-0.8h1.5c0.4,0,0.8,0.3,0.8,0.8S122.7,246,122.3,246z"/><path stroke-width="4" fill-opacity="0" stroke="#000000"  d="M143.1,12.1c0.3,0.1,0.7,0.1,1,0.2L143.1,12.1z"/><path stroke-width="4" fill-opacity="0" stroke="#000000"  d="M144.1,13C144.1,13,144.1,13,144.1,13c-0.5,0-0.8-0.1-1.2-0.2c-0.4-0.1-0.7-0.5-0.5-0.9c0.1-0.4,0.5-0.6,0.9-0.5c0.3,0.1,0.5,0.1,0.9,0.1c0.4,0,0.7,0.4,0.7,0.8C144.8,12.7,144.5,13,144.1,13L144.1,13z"/><path stroke-width="4" fill-opacity="0" stroke="#000000"  d="M193.8,13.9c0.7-0.2,1.3-0.1,2,0H193.8z"/><path stroke-width="4" fill-opacity="0" stroke="#000000"  d="M193.8,14.7c-0.3,0-0.7-0.2-0.7-0.6c-0.1-0.4,0.1-0.8,0.6-0.9c0.8-0.2,1.6-0.1,2.3,0c0.4,0.1,0.7,0.5,0.6,0.9c-0.1,0.4-0.5,0.7-0.9,0.6c-0.5-0.1-1.1-0.2-1.7,0C193.9,14.6,193.9,14.7,193.8,14.7L193.8,14.7z"/><path stroke-width="4" fill-opacity="0" stroke="#000000"  d="M210.7,13.2c0-0.8-0.2-1.7-0.2-2.5L210.7,13.2z"/><path stroke-width="4" fill-opacity="0" stroke="#000000"  d="M210.7,13.9c-0.3,0-0.6-0.3-0.7-0.6c0-0.4-0.1-0.7-0.1-1.1c-0.1-0.5-0.1-0.9-0.1-1.4c0-0.4,0.3-0.6,0.6-0.6l0,0c0.4,0,0.7,0.3,0.7,0.6c0,0.4,0,0.8,0.1,1.3c0,0.4,0.1,0.8,0.1,1.2C211.3,13.6,211,13.9,210.7,13.9C210.7,13.9,210.7,13.9,210.7,13.9L210.7,13.9z"/><path stroke-width="4" fill-opacity="0" stroke="#000000"  d="M227.1,239c-1.1-0.2-2.3-0.8-3.5-0.2L227.1,239z"/><path stroke-width="4" fill-opacity="0" stroke="#000000"  d="M227.1,239.5C227,239.5,227,239.5,227.1,239.5c-0.3,0-0.6-0.1-0.8-0.2c-0.9-0.2-1.7-0.5-2.5-0.1c-0.2,0.1-0.5,0-0.6-0.2c-0.1-0.2,0-0.5,0.2-0.6c1.1-0.5,2.1-0.2,3.1,0c0.2,0.1,0.5,0.1,0.7,0.2c0.2,0,0.4,0.3,0.3,0.6C227.5,239.3,227.3,239.5,227.1,239.5L227.1,239.5z"/><path stroke-width="4" fill-opacity="0" stroke="#000000"  d="M169.8,241.8c0.1-0.5,0.2-1,0.3-1.5L169.8,241.8z"/><path stroke-width="4" fill-opacity="0" stroke="#000000"  d="M169.8,242.5c0,0-0.1,0-0.2,0c-0.4-0.1-0.7-0.5-0.6-0.9l0.1-0.4c0.1-0.4,0.2-0.8,0.3-1.2c0.1-0.4,0.5-0.7,0.9-0.6c0.4,0.1,0.6,0.5,0.6,0.9c-0.1,0.4-0.2,0.7-0.2,1.1l-0.1,0.4C170.5,242.3,170.1,242.5,169.8,242.5L169.8,242.5z"/><path stroke-width="4" fill-opacity="0" stroke="#000000"  d="M159,245c1.6,0.4,3.4,0.4,4.9-0.4L159,245z"/><path stroke-width="4" fill-opacity="0" stroke="#000000"  d="M161.1,246c-0.7,0-1.5-0.1-2.2-0.3c-0.4-0.1-0.6-0.5-0.5-0.9c0.1-0.4,0.5-0.6,0.9-0.5c1.2,0.3,2.9,0.5,4.4-0.3c0.4-0.2,0.8,0,1,0.3c0.2,0.4,0,0.8-0.3,1C163.3,245.7,162.2,246,161.1,246L161.1,246z"/><path stroke-width="4" fill-opacity="0" stroke="#000000"  d="M164.1,242.7c-0.1-0.5-0.2-1-0.3-1.5L164.1,242.7z"/><path stroke-width="4" fill-opacity="0" stroke="#000000"  d="M164.1,243.5c-0.4,0-0.7-0.2-0.7-0.6l-0.1-0.4c-0.1-0.4-0.1-0.7-0.2-1.1c-0.1-0.4,0.1-0.8,0.6-0.9c0.4-0.1,0.8,0.1,0.9,0.6c0.1,0.4,0.2,0.8,0.3,1.2l0.1,0.4c0.1,0.4-0.2,0.8-0.6,0.9C164.3,243.5,164.2,243.5,164.1,243.5L164.1,243.5z"/><path stroke-width="4" fill-opacity="0" stroke="#000000"  d="M74.8,238.3c0-0.3-0.1-0.7-0.2-1L74.8,238.3z"/><path stroke-width="4" fill-opacity="0" stroke="#000000"  d="M74.8,238.8c-0.3,0-0.5-0.2-0.5-0.5c0-0.3-0.1-0.5-0.2-0.9c-0.1-0.3,0-0.6,0.3-0.7c0.3-0.1,0.6,0,0.7,0.3c0.1,0.4,0.2,0.7,0.3,1.1C75.4,238.5,75.2,238.8,74.8,238.8C74.8,238.8,74.8,238.8,74.8,238.8L74.8,238.8z"/><path stroke-width="4" fill-opacity="0" stroke="#000000"  d="M23.4,239.3c0.3-0.4,0.3-1.2,0-2V239.3z"/><path stroke-width="4" fill-opacity="0" stroke="#000000"  d="M23.4,239.8c-0.1,0-0.2,0-0.3-0.1c-0.2-0.2-0.3-0.5-0.1-0.7c0.1-0.1,0.2-0.7-0.1-1.5c-0.1-0.3,0.1-0.6,0.3-0.6c0.3-0.1,0.6,0.1,0.6,0.3c0.1,0.4,0.5,1.7-0.1,2.5C23.7,239.7,23.5,239.8,23.4,239.8L23.4,239.8z"/><path stroke-width="4" fill-opacity="0" stroke="#000000"  d="M16.9,131.6c-0.3-0.1-0.6-0.4-0.9-0.7L16.9,131.6z"/><path stroke-width="4" fill-opacity="0" stroke="#000000"  d="M16.9,132.4c-0.1,0-0.2,0-0.3-0.1c-0.4-0.2-0.7-0.4-1.1-0.7c-0.3-0.3-0.4-0.7-0.1-1.1c0.3-0.3,0.7-0.4,1.1-0.1c0.2,0.2,0.6,0.4,0.8,0.6c0.4,0.2,0.6,0.6,0.4,1C17.4,132.2,17.2,132.4,16.9,132.4L16.9,132.4z"/><path stroke-width="4" fill-opacity="0" stroke="#000000"  d="M10.7,69.4c0-0.3,0.1-0.7,0.2-1L10.7,69.4z"/><path stroke-width="4" fill-opacity="0" stroke="#000000"  d="M10.7,70C10.7,70,10.7,70,10.7,70c-0.4,0-0.6-0.3-0.6-0.6c0-0.4,0.1-0.7,0.3-1.1c0.1-0.3,0.4-0.5,0.7-0.4c0.3,0.1,0.5,0.4,0.4,0.7c-0.1,0.3-0.2,0.6-0.2,0.9C11.3,69.7,11,70,10.7,70L10.7,70z"/><path stroke-width="4" fill-opacity="0" stroke="#000000"  d="M11,67.4c-0.3-0.7-0.2-1.3,0-2V67.4z"/><path stroke-width="4" fill-opacity="0" stroke="#000000"  d="M11,68c-0.2,0-0.4-0.1-0.5-0.4c-0.3-0.8-0.2-1.7,0-2.3c0.1-0.3,0.4-0.5,0.7-0.4c0.3,0.1,0.5,0.4,0.4,0.7c-0.1,0.5-0.2,1.1,0,1.6c0.1,0.3,0,0.6-0.3,0.7C11.1,67.9,11,68,11,68L11,68z"/><path stroke-width="4" fill-opacity="0" stroke="#000000"  d="M104.2,13.7c0.1-0.7,0.1-1.3,0.2-2L104.2,13.7z"/><path stroke-width="4" fill-opacity="0" stroke="#000000"  d="M104.2,14.5c0,0-0.1,0-0.2,0c-0.4-0.1-0.7-0.5-0.6-0.9c0.1-0.5,0.1-1,0.1-1.5v-0.3c0-0.4,0.4-0.7,0.8-0.7c0.4,0,0.7,0.4,0.7,0.8v0.3c0,0.6,0,1.2-0.2,1.8C104.9,14.3,104.6,14.5,104.2,14.5L104.2,14.5z"/><path stroke-width="4" fill-opacity="0" stroke="#000000"  d="M123.2,11.9c1-0.3,2-0.1,3-0.2L123.2,11.9z"/><path stroke-width="4" fill-opacity="0" stroke="#000000"  d="M123.2,12.7c-0.3,0-0.6-0.2-0.7-0.6c-0.1-0.4,0.1-0.8,0.5-0.9c0.8-0.2,1.5-0.2,2.3-0.2c0.3,0,0.6,0,0.9,0c0.4,0,0.8,0.3,0.8,0.7c0,0.4-0.3,0.8-0.7,0.8c-0.3,0-0.7,0-1,0c-0.7,0-1.3,0-1.8,0.1C123.4,12.7,123.3,12.7,123.2,12.7L123.2,12.7z"/><path stroke-width="4" fill-opacity="0" stroke="#000000"  d="M192,15.2c-0.1,0.3-0.2,0.7-0.3,1L192,15.2z"/><path stroke-width="4" fill-opacity="0" stroke="#000000"  d="M191.6,17c-0.1,0-0.2,0-0.2,0c-0.4-0.1-0.6-0.6-0.5-1l0.3-1c0.1-0.4,0.6-0.6,1-0.5c0.4,0.1,0.6,0.6,0.5,1l-0.3,1C192.3,16.8,192,17,191.6,17L191.6,17z"/><path stroke-width="4" fill-opacity="0" stroke="#000000"  d="M200.7,14.4c-1-0.2-2-0.2-3,0H200.7z"/><path stroke-width="4" fill-opacity="0" stroke="#000000"  d="M197.8,15.2c-0.3,0-0.7-0.2-0.7-0.6c-0.1-0.4,0.1-0.8,0.6-0.9c1-0.3,2.2-0.3,3.3,0c0.4,0.1,0.7,0.5,0.6,0.9c-0.1,0.4-0.5,0.7-0.9,0.6c-0.9-0.2-1.8-0.2-2.6,0C197.9,15.2,197.8,15.2,197.8,15.2L197.8,15.2z"/><path stroke-width="4" fill-opacity="0" stroke="#000000"  d="M48.7,17c-0.3,0.1-0.7,0.1-1,0.2L48.7,17z"/><path stroke-width="4" fill-opacity="0" stroke="#000000"  d="M47.7,18c-0.4,0-0.7-0.3-0.8-0.7c0-0.4,0.3-0.8,0.7-0.8c0.3,0,0.6-0.1,0.9-0.1c0.4-0.1,0.8,0.1,0.9,0.5c0.1,0.4-0.1,0.8-0.5,0.9C48.5,17.9,48.1,17.9,47.7,18C47.8,18,47.8,18,47.7,18L47.7,18z"/><path stroke-width="4" fill-opacity="0" stroke="#000000"  d="M96.9,119.5c0.2-0.1,0.3-0.2,0.5-0.3c0.5,0.1,1,0.3,1.5,0.3H96.9z"/><path stroke-width="4" fill-opacity="0" stroke="#000000"  d="M98.9,119.8C98.9,119.8,98.9,119.8,98.9,119.8c-0.3,0-0.6-0.1-0.8-0.2c-0.2,0-0.4-0.1-0.6-0.1l-0.4,0.3c-0.1,0.1-0.3,0-0.4-0.1c-0.1-0.1,0-0.3,0.1-0.4l0.6-0.4l0.1,0c0.3,0,0.5,0.1,0.8,0.2c0.2,0.1,0.5,0.1,0.7,0.2c0.2,0,0.3,0.2,0.2,0.3C99.2,119.7,99,119.8,98.9,119.8L98.9,119.8z"/><path stroke-width="4" fill-opacity="0" stroke="#000000"  d="M192.8,142.4c-0.3,0.3-0.5,0.6-0.7,0.9c0.4,1.4,2.1,2.6,3.7,2.5L192.8,142.4z"/><path stroke-width="4" fill-opacity="0" stroke="#000000"  d="M195.7,146.3c-1.7,0-3.5-1.3-4-2.8l0-0.1l0.1-0.1c0.2-0.4,0.4-0.7,0.7-1c0.1-0.1,0.4-0.1,0.5,0s0.1,0.4,0,0.5c-0.2,0.2-0.4,0.5-0.5,0.7c0.5,1.2,1.9,2.1,3.2,2.1l0,0c0.2,0,0.4,0.2,0.4,0.4C196.1,146,196,146.2,195.7,146.3C195.8,146.2,195.7,146.2,195.7,146.3L195.7,146.3z"/><path stroke-width="4" fill-opacity="0" stroke="#000000"  d="M82,69.9c-0.3-0.1-0.6-0.4-0.9-0.6c-0.1-0.6-0.1-0.9-0.1-1.4L82,69.9z"/><path stroke-width="4" fill-opacity="0" stroke="#000000"  d="M82,70.1C82,70.1,81.9,70.1,82,70.1c-0.4-0.1-0.6-0.3-0.8-0.5c-0.1-0.1-0.2-0.1-0.3-0.2l-0.1-0.1l0-0.1c0-0.4-0.1-0.7-0.1-1.1l0-0.3c0-0.1,0.1-0.3,0.2-0.3c0.1,0,0.3,0.1,0.3,0.2l0,0.3c0,0.3,0,0.6,0.1,0.9c0.1,0,0.1,0.1,0.2,0.1c0.2,0.1,0.3,0.3,0.6,0.4c0.1,0,0.2,0.2,0.1,0.4C82.2,70.1,82.1,70.1,82,70.1L82,70.1z"/><path stroke-width="4" fill-opacity="0" stroke="#000000"  d="M189.8,92.7c0.3-0.3,0.4-0.7,0.5-1L189.8,92.7z"/><path stroke-width="4" fill-opacity="0" stroke="#000000"  d="M189.8,93c-0.1,0-0.1,0-0.2-0.1c-0.1-0.1-0.1-0.3,0-0.5c0.2-0.3,0.3-0.6,0.4-0.9c0-0.2,0.2-0.3,0.4-0.2c0.2,0,0.3,0.2,0.2,0.4c-0.1,0.3-0.2,0.7-0.6,1.1C190,93,189.9,93,189.8,93L189.8,93z"/><path stroke-width="4" fill-opacity="0" stroke="#000000"  d="M62.6,209c-0.1-0.5,0.1-1.3,0.5-2L62.6,209z"/><path stroke-width="4" fill-opacity="0" stroke="#000000"  d="M62.6,209.2c-0.1,0-0.3-0.1-0.3-0.2c-0.1-0.6,0.1-1.4,0.5-2.2c0.1-0.1,0.2-0.2,0.4-0.1c0.1,0.1,0.2,0.2,0.1,0.4c-0.4,0.7-0.5,1.4-0.5,1.8C62.9,209.1,62.9,209.2,62.6,209.2C62.7,209.2,62.7,209.2,62.6,209.2L62.6,209.2z"/><path stroke-width="4" fill-opacity="0" stroke="#000000"  d="M41.8,236.8c1.1,0.3,2.4,0.4,3.5,0H41.8z"/><path stroke-width="4" fill-opacity="0" stroke="#000000"  d="M43.6,237.6c-0.6,0-1.3-0.1-2-0.3c-0.3-0.1-0.4-0.4-0.3-0.7c0.1-0.3,0.4-0.4,0.7-0.3c1.1,0.3,2.2,0.3,3.1,0c0.3-0.1,0.6,0,0.7,0.3c0.1,0.3,0,0.6-0.3,0.7C44.9,237.5,44.2,237.6,43.6,237.6L43.6,237.6z"/><path stroke-width="4" fill-opacity="0" stroke="#000000"  d="M102.4,238.5c0.5-0.4,1.5,0,1.7-0.7L102.4,238.5z"/><path stroke-width="4" fill-opacity="0" stroke="#000000"  d="M102.4,238.9c-0.1,0-0.2,0-0.3-0.2c-0.1-0.2-0.1-0.4,0.1-0.5c0.3-0.2,0.6-0.2,0.9-0.3c0.5,0,0.6-0.1,0.6-0.3c0-0.2,0.3-0.3,0.5-0.3c0.2,0,0.3,0.3,0.3,0.5c-0.2,0.7-0.9,0.8-1.3,0.8c-0.2,0-0.5,0-0.6,0.1C102.5,238.9,102.5,238.9,102.4,238.9L102.4,238.9z"/><path stroke-width="4" fill-opacity="0" stroke="#000000"  d="M136.2,245.4c1.3-0.4,3.9,0.5,4-1.7L136.2,245.4z"/><path stroke-width="4" fill-opacity="0" stroke="#000000"  d="M136.2,246.2c-0.3,0-0.6-0.2-0.7-0.5c-0.1-0.4,0.1-0.8,0.5-0.9c0.5-0.2,1.1-0.2,1.7-0.2c1.6,0,1.7-0.2,1.8-0.8c0-0.4,0.4-0.7,0.7-0.7h0c0.4,0,0.7,0.4,0.7,0.8c-0.1,2.2-2.1,2.2-3.3,2.2c-0.5,0-0.9,0-1.3,0.1C136.3,246.1,136.2,246.2,136.2,246.2L136.2,246.2z"/><path stroke-width="4" fill-opacity="0" stroke="#000000"  d="M10.5,41.1c0-0.3,0-0.7,0-1V41.1z"/><path stroke-width="4" fill-opacity="0" stroke="#000000"  d="M10.5,41.4c-0.2,0-0.3-0.1-0.3-0.3v-1c0-0.2,0.1-0.3,0.3-0.3s0.3,0.1,0.3,0.3v1C10.8,41.2,10.6,41.4,10.5,41.4z"/><path stroke-width="4" fill-opacity="0" stroke="#000000"  d="M10.7,53c0-3.2,0-6.3,0-9.4V53z"/><path stroke-width="4" fill-opacity="0" stroke="#000000"  d="M10.7,53.5L10.7,53.5c-0.3,0-0.5-0.2-0.5-0.5c0-2.3,0-4.6,0-6.9v-2.6c0-0.3,0.2-0.5,0.5-0.5l0,0c0.3,0,0.5,0.2,0.5,0.5v2.6c0,2.2,0,4.6,0,6.9C11.3,53.3,11,53.5,10.7,53.5L10.7,53.5z"/><path stroke-width="4" fill-opacity="0" stroke="#000000"  d="M10.5,130.5c0.2-0.5,0.4-1,0.5-1.5L10.5,130.5z"/><path stroke-width="4" fill-opacity="0" stroke="#000000"  d="M10.5,130.8C10.5,130.8,10.4,130.8,10.5,130.8c-0.2-0.1-0.3-0.2-0.3-0.4c0-0.1,0.1-0.2,0.1-0.4c0.1-0.4,0.3-0.7,0.4-1.1c0-0.1,0.2-0.2,0.3-0.2c0.1,0,0.2,0.2,0.2,0.3c-0.1,0.4-0.2,0.8-0.4,1.2c0,0.1-0.1,0.2-0.1,0.4C10.7,130.7,10.6,130.8,10.5,130.8L10.5,130.8z"/><path stroke-width="4" fill-opacity="0" stroke="#000000"  d="M188.8,144.9c0.4,0.3,0.9,0.4,1.5,0.5L188.8,144.9z"/><path stroke-width="4" fill-opacity="0" stroke="#000000"  d="M190.3,145.7L190.3,145.7c-0.7-0.1-1.3-0.3-1.7-0.6c-0.1-0.1-0.1-0.3,0-0.4c0.1-0.1,0.3-0.1,0.4,0c0.3,0.2,0.7,0.4,1.3,0.4c0.2,0,0.3,0.2,0.3,0.3C190.6,145.6,190.5,145.7,190.3,145.7L190.3,145.7z"/></g></g>
</svg>